<svg width="700" height="144" viewBox="0 0 700 144" fill="none" xmlns="http://www.w3.org/2000/svg">
<g clip-path="url(#clip0_1_50)">
<path fill-rule="evenodd" clip-rule="evenodd" d="M594.632 28.6517C585.194 57.2756 585.177 57.3089 582.424 57.3089H579.671L579.126 32.6568H553.882V86.6263C553.882 125.895 554.183 140.845 554.989 141.511C555.601 142.016 561.279 142.304 567.614 142.155L579.126 141.883L579.399 130.211L579.666 118.545L588.075 110.335L595.955 124.204C600.293 131.831 604.398 138.832 605.082 139.758C606.183 141.261 607.957 141.422 621.049 141.184L635.77 140.918L621.282 118.207C613.313 105.72 606.795 95.1636 606.795 94.7475C606.795 94.3315 612.907 87.1533 620.37 78.7935C627.839 70.4282 633.957 63.0448 633.963 62.3791C633.974 61.4805 631.032 61.1754 622.45 61.1754C616.11 61.1754 609.603 61.4361 607.99 61.7578C605.721 62.2072 602.395 65.469 593.219 76.2529C586.712 83.9026 580.984 90.404 580.494 90.7035C579.977 91.0253 579.61 85.9828 579.61 78.6271V66.0071H591.745L601.061 37.7326L610.376 9.46366L617.567 9.73547C621.522 9.88525 628.907 10.6674 633.979 11.4718C643.323 12.9584 663.956 18.2505 665.291 19.5042C665.685 19.8814 665.363 32.9952 664.568 48.6552C663.772 64.3096 663.116 77.6508 663.11 78.2998C663.11 78.9544 665.396 80.4522 668.205 81.6337C675.407 84.6681 689.066 91.8518 693.86 95.1303C696.096 96.6558 698.387 97.9039 698.96 97.9039C699.555 97.9039 700 95.9124 700 93.2553V88.6067L692.347 84.0745C688.143 81.5838 681.819 78.2055 678.299 76.5635L671.903 73.5847L672.37 69.5518C672.988 64.2708 674.756 26.7268 674.756 18.9772V12.9418L664.184 9.54132C648.395 4.46001 631.493 1.25923 616.844 0.582464L604.081 0L594.632 28.6517ZM614.308 24.6854C610.293 27.7198 610.471 35.7966 614.597 37.9933C617.868 39.7407 622.278 39.0806 624.914 36.4567C626.972 34.4042 627.317 33.3613 626.855 30.5378C626.549 28.6461 625.554 26.2886 624.647 25.29C622.734 23.1821 616.755 22.8326 614.308 24.6854ZM145.94 27.2926C138.426 31.858 137.13 42.9248 143.431 48.7772C153.153 57.8082 167.958 51.8671 167.952 38.9419C167.947 34.0215 165.75 30.0219 161.518 27.2427C157.763 24.7852 150.033 24.8074 145.94 27.2926ZM644.129 31.6472C639.819 35.9408 641.726 43.3797 647.611 45.2381C652.538 46.7913 659.167 40.5617 657.705 35.7522C655.747 29.3174 648.628 27.1706 644.129 31.6472ZM295.389 35.547C283.359 38.9031 276.024 44.3616 271.635 53.2317C268.827 58.9176 268.449 60.5985 268.471 67.4327C268.488 74.1616 268.866 75.8701 271.318 80.3135C276.457 89.6218 285.039 94.2704 306.601 99.4239C326.055 104.078 329.125 105.842 329.125 112.349C329.125 118.384 322.801 122.068 312.44 122.068C301.212 122.068 293.337 117.658 291.751 110.491L291.106 107.567H264.828L265.496 112.16C268.349 131.826 285.584 143.586 311.651 143.647C337.979 143.702 354.63 131.942 356.082 112.26C356.977 100.139 351.938 90.4706 341.889 85.0231C336.004 81.8334 331.694 80.5077 314.759 76.68C299.693 73.2796 296.829 71.9926 295.105 67.8432C293.976 65.125 294.043 64.3595 295.7 61.3474C301.05 51.5897 325.315 54.3522 327.657 64.9864C327.996 66.523 328.797 67.9764 329.442 68.2204C331.01 68.8195 353.507 68.1483 354.179 67.4826C354.469 67.1942 354.23 64.3762 353.64 61.2309C351.538 49.981 343.524 41.2274 331.294 36.8173C323.914 34.1601 303.03 33.4224 295.389 35.547ZM0 88.2128V141.4H26.1892L26.7008 74.5332L36.3667 97.094C41.678 109.498 46.6444 120.631 47.3952 121.824C48.6911 123.882 49.4029 123.998 60.1255 123.998H71.4877L72.9726 120.859C73.7902 119.133 78.5286 108.582 83.5006 97.4213C88.4726 86.2546 92.9051 76.7078 93.3556 76.203C93.8061 75.6982 94.1787 90.1599 94.1787 108.344V141.4H120.407L119.906 35.5581H84.9911L73.6178 64.0711C67.3611 79.7532 61.7606 93.8932 61.1767 95.4853C60.17 98.2201 59.397 96.567 47.7623 66.9723L35.4157 35.5581L17.7079 35.2973L0 35.0311V88.2128ZM398.166 61.253C391.464 62.5622 382.126 67.3717 377.671 71.804C369.146 80.2913 364.652 96.0067 366.843 109.642C369.958 128.958 381.609 140.446 401.163 143.475C413.715 145.416 428.743 141.838 436.774 134.993C441.573 130.899 446.578 122.711 446.595 118.928L446.601 116.265H424.143L421.029 119.555C415.623 125.258 405.434 126.395 398.316 122.084C395.157 120.171 392.993 116.837 391.864 112.16L391.225 109.503H448.542V101.46C448.542 75.9145 432.652 59.8329 407.876 60.31C404.878 60.371 400.507 60.7926 398.166 61.253ZM487.862 61.5859C476.716 64.7367 469.898 69.1635 465.098 76.386C456.389 89.472 455.772 112.038 463.741 125.607C472.512 140.535 492.594 147.203 513.589 142.16C523.945 139.675 533.054 132.38 537.053 123.377C540.079 116.576 539.623 116.265 526.625 116.265C515.708 116.265 515.263 116.349 513.406 118.701C510.452 122.434 506.326 124.098 499.93 124.126C495.97 124.148 493.145 123.582 491.004 122.334C487.222 120.137 483.496 114.895 483.496 111.772V109.503H539.7L539.995 104.91C540.557 96.1898 539.022 88.0686 535.457 80.8627C531.397 72.6583 526.408 67.8654 517.705 63.8103C512.31 61.2974 510.013 60.8204 502.049 60.5374C495.976 60.3267 491.026 60.6928 487.862 61.5859ZM149.271 61.891L140.779 62.2127V141.4H166.022V101.87C166.022 58.5904 166.345 60.9091 160.361 61.3695C158.937 61.4805 153.948 61.7135 149.271 61.891ZM179.604 62.1517C179.153 62.4291 184.175 71.4989 190.777 82.3161L202.767 101.976L198.713 108.122L185.805 127.709L176.951 141.151L189.687 141.666C204.725 142.271 202.895 143.43 211.705 127.693C218.673 115.25 217.305 114.956 225.781 130.699L231.543 141.4H245.001C256.319 141.4 258.377 141.178 257.926 140.008C257.632 139.242 252.076 130.333 245.58 120.21L233.773 101.809L236.431 97.2993C237.888 94.8141 243.405 86.0771 248.683 77.8727C253.961 69.6738 258.026 62.5622 257.721 62.0685C257.415 61.5748 251.542 61.1754 244.668 61.1754H232.171L230.308 63.8325C229.285 65.2915 226.615 70.0178 224.379 74.3335C217.845 86.937 218.812 86.9813 211.821 73.7566C208.446 67.3661 205.17 62.074 204.541 61.9908C201.455 61.5803 180.321 61.719 179.604 62.1517ZM399.984 81.3286C396.809 83.0095 392.287 89.1725 392.248 91.8629C392.237 92.7782 396.063 93.0722 408.182 93.0722H424.138L423.337 90.2931C422.069 85.8996 419.566 82.7266 416.057 81.0679C411.669 78.9988 404.161 79.1153 399.984 81.3286ZM491.249 81.3397C487.934 83.1038 485.32 86.5597 484.019 90.8922L483.362 93.0722H515.664L514.991 90.8922C513.484 86.0216 511.415 83.3257 507.783 81.4784C502.922 79.0099 495.737 78.9489 491.249 81.3397Z" fill="white"/>
</g>
<defs>
<clipPath id="clip0_1_50">
<rect width="700" height="144" fill="white"/>
</clipPath>
</defs>
</svg>
